<svg width="108" height="78" viewBox="0 0 108 78" fill="none" xmlns="http://www.w3.org/2000/svg">
<path d="M54.3173 0L31.4022 42.8598H75.5351L54.3173 0Z" fill="white"/>
<path d="M13.3539 70.9701H3.77941L2.26764 73.7416H0.503921L7.55881 61.6475H9.57449L16.6294 73.7416H14.8657L13.3539 70.9701ZM12.598 69.7103L8.56665 62.6554L4.53529 69.7103H12.598ZM20.9026 73.7416V61.6475H22.4144V72.4818H31.9889V73.7416H20.9026ZM48.1043 70.9701H38.5298L37.018 73.7416H35.2543L42.3092 61.6475H44.3249L51.3798 73.7416H49.616L48.1043 70.9701ZM47.3484 69.7103L43.317 62.6554L39.2857 69.7103H47.3484ZM63.2748 66.9387C64.1042 66.9387 64.8154 66.9728 65.4086 67.0411C66.0017 67.1093 66.5004 67.2117 66.9046 67.3481C67.314 67.4794 67.6395 67.6447 67.8809 67.8442C68.1224 68.0437 68.3088 68.272 68.44 68.5292C68.5712 68.7812 68.6552 69.0646 68.6919 69.3796C68.7339 69.6945 68.7549 70.0357 68.7549 70.4032C68.7549 70.7706 68.7208 71.1171 68.6526 71.4425C68.5896 71.7627 68.4741 72.0567 68.3061 72.3244C68.1382 72.5921 67.9098 72.8309 67.6211 73.0409C67.3324 73.2508 66.965 73.4293 66.5188 73.5763C66.0726 73.7233 65.5346 73.8335 64.9047 73.907C64.28 73.9857 63.5478 74.0251 62.7079 74.0251H60.6922C59.9363 74.0251 59.2749 73.9962 58.708 73.9385C58.1411 73.8807 57.6529 73.7941 57.2435 73.6786C56.8341 73.5579 56.4955 73.4083 56.2278 73.2298C55.9601 73.0461 55.7449 72.8335 55.5821 72.5921C55.4247 72.3454 55.3144 72.0672 55.2514 71.7575C55.1884 71.4425 55.157 71.0961 55.157 70.7181H56.6687C56.6687 71.1905 56.737 71.5606 56.8734 71.8283C57.0099 72.096 57.2356 72.2981 57.5506 72.4346C57.8655 72.5658 58.2776 72.6498 58.7868 72.6866C59.3012 72.718 59.9363 72.7338 60.6922 72.7338H62.7079C63.5897 72.7338 64.322 72.6918 64.9047 72.6078C65.4873 72.5238 65.9519 72.39 66.2983 72.2063C66.6448 72.0225 66.8889 71.7837 67.0306 71.4897C67.1723 71.1905 67.2432 70.8283 67.2432 70.4032C67.2432 69.978 67.1933 69.6237 67.0936 69.3402C66.9991 69.0568 66.8075 68.831 66.5188 68.6631C66.2353 68.4951 65.8338 68.377 65.3141 68.3087C64.7944 68.2353 64.1147 68.1985 63.2748 68.1985H61.1961C60.2723 68.1985 59.4796 68.1644 58.8182 68.0962C58.1621 68.0279 57.6109 67.9308 57.1648 67.8048C56.7186 67.6736 56.3616 67.5135 56.0939 67.3245C55.8262 67.1303 55.6215 66.9098 55.4798 66.6631C55.3433 66.4164 55.2541 66.1435 55.2121 65.8443C55.1701 65.5398 55.1491 65.2117 55.1491 64.86C55.1491 64.4926 55.1806 64.1514 55.2436 63.8364C55.3118 63.5215 55.4352 63.238 55.6136 62.9861C55.7921 62.7289 56.0362 62.5005 56.3459 62.3011C56.6556 62.1016 57.0519 61.9362 57.5348 61.805C58.023 61.6685 58.6083 61.5662 59.2907 61.4979C59.9731 61.4297 60.7762 61.3956 61.7 61.3956H63.2118C63.9677 61.3956 64.6291 61.4245 65.196 61.4822C65.7629 61.5347 66.2511 61.6213 66.6605 61.742C67.07 61.8575 67.4085 62.0045 67.6762 62.183C67.9492 62.3562 68.1644 62.5661 68.3219 62.8129C68.4846 63.0543 68.5975 63.3299 68.6604 63.6396C68.7234 63.9493 68.7549 64.2931 68.7549 64.6711H67.2432C67.2432 64.1986 67.1749 63.8286 67.0385 63.5609C66.902 63.2932 66.6763 63.0937 66.3613 62.9625C66.0464 62.826 65.6317 62.742 65.1173 62.7105C64.6028 62.6738 63.9677 62.6554 63.2118 62.6554H61.7C60.6922 62.6554 59.8628 62.6921 59.2119 62.7656C58.561 62.8339 58.0466 62.952 57.6687 63.1199C57.2907 63.2879 57.0283 63.5136 56.8813 63.7971C56.7343 64.0805 56.6608 64.4349 56.6608 64.86C56.6608 65.1225 56.6792 65.3561 56.716 65.5608C56.7527 65.7655 56.8262 65.9466 56.9364 66.1041C57.0519 66.2563 57.212 66.3849 57.4167 66.4899C57.6214 66.5949 57.8918 66.6815 58.2277 66.7497C58.5637 66.818 58.9731 66.8678 59.456 66.8993C59.9442 66.9256 60.5242 66.9387 61.1961 66.9387H63.2748ZM84.8703 61.6475H87.138L78.5713 67.5686L87.3899 73.7416H85.1223L77.0595 68.1985H75.0439V73.7416H73.5321V61.6475H75.0439V66.9387H77.0595L84.8703 61.6475ZM103.505 70.9701H93.9308L92.419 73.7416H90.6553L97.7102 61.6475H99.7259L106.781 73.7416H105.017L103.505 70.9701ZM102.749 69.7103L98.7181 62.6554L94.6867 69.7103H102.749Z" fill="white"/>
</svg>
